<?xml version="1.0" encoding="UTF-8"?>
<!DOCTYPE svg PUBLIC "-//W3C//DTD SVG 1.1//EN" "http://www.w3.org/Graphics/SVG/1.1/DTD/svg11.dtd">
<!-- Creator: CorelDRAW 2017 -->
<svg xmlns="http://www.w3.org/2000/svg" xml:space="preserve" width="500px" height="500px" version="1.1" style="shape-rendering:geometricPrecision; text-rendering:geometricPrecision; image-rendering:optimizeQuality; fill-rule:evenodd; clip-rule:evenodd"
viewBox="0 0 338.11 338.11"
 xmlns:xlink="http://www.w3.org/1999/xlink"
 focusable="false"
 itemprop="logo">
 <defs>
  <style type="text/css">
   <![CDATA[
    .str0 {stroke:#47C9E5;stroke-width:6.28;stroke-miterlimit:22.9256}
    .str1 {stroke:#47C9E5;stroke-width:0.23;stroke-miterlimit:22.9256}
    .fil1 {fill:none}
    .fil0 {fill:#00A0E3}
    .fil2 {fill:#47C9E5}
   ]]>
  </style>
 </defs>
 <g id="Слой_x0020_1">
  <metadata id="CorelCorpID_0Corel-Layer"/>
  <g id="bs_logo.svg">
   <g>
    <path class="fil0" d="M279.66 7.48c28.11,0.09 50.88,22.86 50.97,50.97l0 221.22c-0.09,28.1 -22.86,50.87 -50.97,50.96l-221.21 0c-28.11,-0.09 -50.88,-22.86 -50.97,-50.97l0 -221.21c0.09,-28.11 22.86,-50.88 50.97,-50.97l221.21 0 0 0zm0 -4.34l-221.21 0c-30.42,0 -55.31,24.89 -55.31,55.31l0 221.21c0,30.42 24.89,55.31 55.31,55.31l221.21 0c30.42,0 55.31,-24.89 55.31,-55.31l0 -221.21c0,-30.42 -24.89,-55.31 -55.31,-55.31z"/>
    <path id="1" class="fil1 str0" d="M279.66 7.48c28.11,0.09 50.88,22.86 50.97,50.97l0 221.22c-0.09,28.1 -22.86,50.87 -50.97,50.96l-221.21 0c-28.11,-0.09 -50.88,-22.86 -50.97,-50.97l0 -221.21c0.09,-28.11 22.86,-50.88 50.97,-50.97l221.21 0m0 -4.34l-221.21 0c-30.42,0 -55.31,24.89 -55.31,55.31l0 221.21c0,30.42 24.89,55.31 55.31,55.31l221.21 0c30.42,0 55.31,-24.89 55.31,-55.31l0 -221.21c0,-30.42 -24.89,-55.31 -55.31,-55.31z"/>
   </g>
   <path class="fil2 str1" d="M109.83 258.79l0 -171.92 67.31 0c29.43,0 49.34,17.16 49.34,42.89 0,17.89 -13.1,34.55 -29.66,37.53l0 0.95c23.35,2.98 38.36,19.42 38.36,42.29 0,30.26 -21.69,48.26 -58.26,48.26l-67.09 0zm21.44 -97.81l34.32 0c25.37,0 39.19,-10.13 39.19,-28.74 0,-17.04 -11.67,-26.45 -32.53,-26.45l-40.98 0 0 55.19zm42.42 78.86c25.85,0 39.43,-10.48 39.43,-30.36 0,-19.88 -14.06,-30.02 -41.46,-30.02l-40.39 0 0 60.4 42.42 -0.02z"/>
  </g>
 </g>
</svg>
