<svg xmlns="http://www.w3.org/2000/svg" width="293" height="185" viewBox="0 0 293 185">
  <defs>
    <linearGradient id="a" x1="100%" x2="0%" y1="50%" y2="50%">
      <stop stop-color="#00AEFF" offset="0%"/>
      <stop stop-color="#3369E6" offset="100%"/>
    </linearGradient>
    <linearGradient id="b" x1="1.035%" y1="50%" y2="50%">
      <stop stop-color="#00AEFF" offset="0%"/>
      <stop stop-color="#3369E6" offset="100%"/>
    </linearGradient>
    <linearGradient id="c" x1="100%" x2="0%" y1="100%" y2="100%">
      <stop stop-color="#00AEFF" offset="0%"/>
      <stop stop-color="#3369E6" offset="100%"/>
    </linearGradient>
  </defs>
  <g fill="none" fill-rule="evenodd">
    <path fill="url(#a)" d="M0,153 L276.999823,153 C285.836477,153 293,160.161501 293,169 L293,169 C293,177.836556 285.830023,185 276.999823,185 L0,185 L0,153 Z" opacity=".856"/>
    <path fill="url(#b)" d="M0,153 L120.237931,153 C129.071548,153 136.23261,160.161501 136.23261,169 L136.23261,169 C136.23261,177.836556 129.076111,185 120.237931,185 L0,185 L0,153 Z" opacity=".9"/>
    <path fill="url(#a)" d="M0,89 L31.2181408,89 C40.0566807,89 47.2217329,96.1615011 47.2217329,105 L47.2217329,105 C47.2217329,113.836556 40.0497681,121 31.2181408,121 L0,121 L0,89 Z" opacity=".9"/>
    <path fill="url(#a)" d="M0,121 L78.4491425,121 C87.2825633,121 94.4434658,128.161501 94.4434658,137 L94.4434658,137 C94.4434658,145.836556 87.2867518,153 78.4491425,153 L0,153 L0,121 Z" opacity=".4"/>
    <path fill="url(#a)" d="M0,121 L198.993795,121 C207.833778,121 215,128.161501 215,137 L215,137 C215,145.836556 207.831218,153 198.993795,153 L0,153 L0,121 Z" opacity=".4"/>
    <path fill="url(#c)" d="M0,32 L25.7817395,32 C34.622385,32 41.7891442,39.1615011 41.7891442,48 L41.7891442,48 C41.7891442,56.836556 34.6290895,64 25.7817395,64 L0,64 L0,32 Z" opacity=".2"/>
    <path fill="url(#c)" d="M1.42108547e-14,1.42108547e-14 L64.9970065,1.42108547e-14 C73.8352158,1.42108547e-14 81,7.16150109 81,16 L81,16 C81,24.836556 73.8295656,32 64.9970065,32 L1.42108547e-14,32 L1.42108547e-14,1.42108547e-14 Z" opacity=".5"/>
  </g>
</svg>
