<svg xmlns="http://www.w3.org/2000/svg" width="260" height="191" viewBox="0 0 260 191">
  <defs>
    <linearGradient id="a" x1="100%" x2="0%" y1="50%" y2="50%">
      <stop stop-color="#00AEFF" offset="0%"/>
      <stop stop-color="#3369E6" offset="100%"/>
    </linearGradient>
    <linearGradient id="b" x1="100%" x2="-2.067%" y1="50%" y2="50%">
      <stop stop-color="#00AEFF" offset="0%"/>
      <stop stop-color="#3369E6" offset="100%"/>
    </linearGradient>
  </defs>
  <g fill="none" fill-rule="evenodd" transform="rotate(-180 129.707 95.416)">
    <path fill="url(#a)" d="M0,96 L78.4491425,96 C87.2825633,96 94.4434658,103.161501 94.4434658,112 L94.4434658,112 C94.4434658,120.836556 87.2867518,128 78.4491425,128 L0,128 L0,96 Z" opacity=".4"/>
    <path fill="url(#a)" d="M0,158 L25.7817395,158 C34.622385,158 41.7891442,165.161501 41.7891442,174 L41.7891442,174 C41.7891442,182.836556 34.6290895,190 25.7817395,190 L0,190 L0,158 Z" opacity=".6"/>
    <path fill="url(#b)" d="M0,64 L147.302596,64 C156.134745,64 163.294616,71.1615011 163.294616,80 L163.294616,80 C163.294616,88.836556 156.133495,96 147.302596,96 L0,96 L0,64 Z" opacity=".9"/>
    <path fill="url(#a)" d="M0,32 L242.795945,32 C251.6287,32 258.789063,39.1615011 258.789063,48 L258.789063,48 C258.789063,56.836556 251.631424,64 242.795945,64 L0,64 L0,32 Z" opacity=".6"/>
    <path fill="url(#a)" d="M0,0 L188.935983,0 C197.769916,0 204.931234,7.16150109 204.931234,16 L204.931234,16 C204.931234,24.836556 197.772741,32 188.935983,32 L0,32 L0,0 Z" opacity=".2"/>
    <path fill="url(#a)" d="M0,0 L146.977499,0 C155.812986,0 162.975563,7.16150109 162.975563,16 L162.975563,16 C162.975563,24.836556 155.815252,32 146.977499,32 L0,32 L0,0 Z" opacity=".4"/>
  </g>
</svg>
